HIERARCHY
ROOT ROOT
{
	OFFSET 0.000000 56.020000 -5.659234
	CHANNELS 6 Xposition Yposition Zposition Xrotation Yrotation Zrotation 
	JOINT C_spine0001_bind_JNT
	{
		OFFSET 0.000000 1.618999 0.000000
		CHANNELS 3 Xrotation Yrotation Zrotation
		JOINT C_spine0002_bind_JNT
		{
			OFFSET 0.000000 4.942001 0.000001
			CHANNELS 3 Xrotation Yrotation Zrotation
			JOINT C_spine0003_bind_JNT
			{
				OFFSET 0.000000 4.942001 -0.000000
				CHANNELS 3 Xrotation Yrotation Zrotation
				JOINT C_neck0001_bind_JNT
				{
					OFFSET 0.000000 17.026009 -0.000000
					CHANNELS 3 Xrotation Yrotation Zrotation
					JOINT C_neck0002_bind_JNT
					{
						OFFSET 0.000000 3.249985 0.000000
						CHANNELS 3 Xrotation Yrotation Zrotation
						JOINT C_head_bind_JNT
						{
							OFFSET 0.000000 5.278008 0.000000
							CHANNELS 3 Xrotation Yrotation Zrotation
							End Site
							{
								OFFSET 0.000000 0.000000 0.000000
							}
						}
					}
				}
				JOINT L_clavicle_bind_JNT
				{
					OFFSET 4.590000 12.067001 0.834000
					CHANNELS 3 Xrotation Yrotation Zrotation
					JOINT L_armUpper0001_bind_JNT
					{
						OFFSET 7.812635 0.512001 -3.452945
						CHANNELS 3 Xrotation Yrotation Zrotation
						JOINT L_armLower0001_bind_JNT
						{
							OFFSET 15.265892 -6.552116 -0.058157
							CHANNELS 3 Xrotation Yrotation Zrotation
							JOINT L_hand0001_bind_JNT
							{
								OFFSET 14.747667 -6.369995 5.049225
								CHANNELS 3 Xrotation Yrotation Zrotation
								End Site
								{
									OFFSET 0.000000 0.000000 0.000000
								}
							}
						}
					}
				}
				JOINT R_clavicle_bind_JNT
				{
					OFFSET -4.590000 12.067001 0.834000
					CHANNELS 3 Xrotation Yrotation Zrotation
					JOINT R_armUpper0001_bind_JNT
					{
						OFFSET -7.812635 0.512001 -3.452945
						CHANNELS 3 Xrotation Yrotation Zrotation
						JOINT R_armLower0001_bind_JNT
						{
							OFFSET -15.265890 -6.552124 -0.058160
							CHANNELS 3 Xrotation Yrotation Zrotation
							JOINT R_hand0001_bind_JNT
							{
								OFFSET -14.746784 -6.369629 5.048937
								CHANNELS 3 Xrotation Yrotation Zrotation
								End Site
								{
									OFFSET 0.000000 0.000000 0.000000
								}
							}
						}
					}
				}
			}
		}
	}
	JOINT C_pelvis0001_bind_JNT
	{
		OFFSET -0.000000 0.000000 0.000000
		CHANNELS 3 Xrotation Yrotation Zrotation
		JOINT L_legUpper0001_bind_JNT
		{
			OFFSET 6.599999 -6.027000 0.539000
			CHANNELS 3 Xrotation Yrotation Zrotation
			JOINT L_legLower0001_bind_JNT
			{
				OFFSET -0.140713 -19.187443 0.040261
				CHANNELS 3 Xrotation Yrotation Zrotation
				JOINT L_foot0001_bind_JNT
				{
					OFFSET -0.132215 -18.028637 -1.138370
					CHANNELS 3 Xrotation Yrotation Zrotation
					JOINT L_foot0002_bind_JNT
					{
						OFFSET 0.007014 -4.693133 9.886524
						CHANNELS 3 Xrotation Yrotation Zrotation
						End Site
						{
							OFFSET 0.000000 0.000000 0.000000
						}
					}
				}
			}
		}
		JOINT R_legUpper0001_bind_JNT
		{
			OFFSET -6.599999 -6.027000 0.539000
			CHANNELS 3 Xrotation Yrotation Zrotation
			JOINT R_legLower0001_bind_JNT
			{
				OFFSET 0.140710 -19.187164 0.040550
				CHANNELS 3 Xrotation Yrotation Zrotation
				JOINT R_foot0001_bind_JNT
				{
					OFFSET 0.132215 -18.028633 -1.138362
					CHANNELS 3 Xrotation Yrotation Zrotation
					JOINT R_foot0002_bind_JNT
					{
						OFFSET -0.007014 -4.693128 9.886505
						CHANNELS 3 Xrotation Yrotation Zrotation
						End Site
						{
							OFFSET 0.000000 0.000000 0.000000
						}
					}
				}
			}
		}
	}
}
MOTION
Frames: 12
Frame Time: 0.033333
0.000000 48.769630 0.000000 0.036338 8.656279 -0.064066 5.172589 -9.142367 -0.685499 -5.234626 0.088156 -0.105453 1.874725 0.000680 0.481722 15.040206 -4.778461 -0.249363 -0.646272 0.029559 -0.182019 -9.840274 -6.723370 -1.409861 6.447746 1.614773 8.191089 -9.167203 7.943269 -73.695938 4.117937 13.244822 -2.091458 -2.070617 -14.698496 -19.334398 3.663895 0.609591 -9.941407 -3.644428 -14.960922 73.804840 7.522668 -7.675853 3.989899 1.204031 17.559402 18.822838 8.409031 -9.067660 -0.152613 -4.278890 0.225217 -1.413930 6.302303 1.460204 -2.003013 -9.376564 -0.233743 2.137035 -2.546477 -0.305904 0.672062 -16.753220 -11.815847 -14.055643 23.108482 -3.008951 0.800802 -3.224259 13.373337 7.012952 -10.748737 1.623400 1.945614 
0.246162 48.791225 0.039904 0.025379 8.539787 -0.025591 4.466022 -9.093723 -1.035275 -4.669148 -0.335101 0.197143 2.539574 -0.151899 -0.048959 14.536373 -4.211948 -0.011056 -0.072384 -0.164816 -0.212189 -9.291223 -6.983445 -1.510754 5.852362 1.966664 8.866630 -10.204153 7.644728 -74.024422 3.402825 11.400278 -2.448468 -1.608698 -14.052011 -18.504004 3.245610 1.256121 -10.226563 -4.753387 -14.763532 74.535751 7.365056 -8.343904 3.566545 2.642839 16.135536 17.098547 7.974764 -9.340920 -0.554314 -5.037156 0.298841 -1.441205 8.404791 1.537545 -1.898483 -9.709641 -0.463904 2.110772 -2.705784 -0.149092 0.799077 -17.460495 -12.182340 -13.791103 24.600492 -2.813246 0.393733 -3.248270 14.687848 6.296971 -10.613297 1.537778 2.258716 
0.357984 48.784115 0.209533 0.025892 9.235378 -0.027337 4.771570 -9.879061 -0.929423 -4.815736 -0.231742 0.076610 2.633564 -0.093567 -0.325005 14.588747 -3.918946 0.283468 -0.101739 -0.228472 -0.279178 -9.011998 -6.977498 -1.065660 5.265225 1.642396 9.249635 -10.743907 7.273005 -73.316269 3.189649 10.985957 -3.319360 -1.614478 -14.367191 -18.268879 3.345824 1.461570 -10.066051 -4.719779 -15.380081 74.914803 6.772050 -9.266914 2.926180 2.607778 16.632812 16.737968 8.187404 -9.978165 -0.214480 -4.462724 -0.222157 -2.116625 8.571897 1.401227 -1.624783 -10.630005 -0.012324 2.392078 -2.667855 -0.244943 0.761891 -19.948927 -11.579702 -14.921513 27.289042 -2.193036 0.032824 -3.024612 15.208353 5.725049 -9.815866 1.916380 2.072016 
0.404127 48.777367 0.533317 0.032347 9.526098 -0.031135 4.842082 -9.951404 -1.070141 -4.746273 -0.364652 0.151683 2.607622 -0.076392 -0.359032 14.599807 -3.674856 0.180807 -0.047640 -0.247082 -0.316923 -9.117698 -6.305920 -1.167067 5.138731 1.899137 9.180099 -11.680281 6.598254 -72.876137 2.935773 10.513681 -3.747667 -1.683460 -14.594768 -18.347946 3.390203 1.599350 -10.308883 -4.166265 -16.004679 75.517754 6.521995 -9.731571 2.305783 2.005620 16.800901 15.876469 8.204550 -9.866487 -0.425346 -3.840798 -0.264083 -1.906619 8.608831 0.890059 -1.495032 -10.969437 0.269622 2.244169 -2.829986 0.007590 0.909483 -21.288280 -11.173996 -14.814635 29.107407 -1.463652 -0.326277 -3.987703 16.249876 5.363946 -8.212438 2.431926 1.853507 
0.550649 48.820766 0.868974 0.038766 9.823092 -0.033786 4.812488 -9.852316 -1.019379 -4.689671 -0.438333 0.060797 2.529219 -0.254317 -0.625940 14.498906 -3.483395 0.097228 0.082313 0.016114 -0.307857 -8.788167 -6.308988 -1.129678 4.811265 1.903183 9.077593 -12.240633 6.701225 -72.095718 2.772275 9.534181 -4.521337 -1.591841 -14.548799 -18.283979 3.397321 1.883545 -10.069689 -3.311073 -17.172655 75.576080 6.255163 -10.285976 2.047213 1.918950 17.257357 15.654078 8.226418 -9.695922 -0.586639 -3.229170 -0.441281 -2.134343 8.521095 0.660698 -1.288290 -11.083927 0.521985 2.300334 -3.192513 -0.044291 0.767987 -22.800169 -10.535155 -14.670641 30.741728 -0.161388 -0.245321 -4.813185 17.342356 5.164455 -6.593049 2.742154 1.675036 
0.660886 48.729511 1.228218 0.032198 10.555390 -0.034763 4.980671 -10.291547 -0.911026 -4.738911 -0.489569 0.024210 2.565443 -0.217419 -0.592642 14.648273 -3.399190 0.043131 -0.057085 -0.078781 -0.358647 -8.861561 -5.859118 -1.183256 4.501419 1.849984 8.947659 -12.548607 6.626910 -71.665848 2.439584 8.467637 -5.527274 -1.937405 -14.449625 -17.724380 3.329061 1.852631 -10.083663 -2.046658 -18.079529 75.803146 6.055939 -10.361185 2.075686 2.064202 16.979584 15.645440 8.093490 -9.920401 -0.743961 -2.541873 -0.376273 -1.830591 8.399643 0.567796 -1.342948 -10.924986 0.625896 2.352619 -3.809206 0.014613 0.744444 -23.308807 -9.910595 -13.911407 31.079842 0.465208 -0.254140 -5.621289 18.436304 5.817699 -5.406669 3.060982 1.775411 
0.873343 48.743744 1.610030 0.040027 11.205899 -0.035608 5.117853 -10.534110 -0.573397 -4.615230 -0.589856 0.058993 2.620559 -0.296897 -0.599523 14.630444 -3.141328 -0.107302 -0.167016 0.033951 -0.389613 -9.093582 -5.654373 -1.164322 3.932193 1.664124 8.695909 -12.651533 6.491585 -71.305725 2.142287 7.023168 -6.449294 -1.924097 -14.602880 -17.673525 3.114033 1.851100 -9.939345 -0.868119 -18.884159 75.831154 5.839672 -10.956141 1.922906 1.916196 16.799574 15.453767 8.528963 -10.075509 -0.717582 -2.684619 -0.635848 -2.038720 8.401566 0.606697 -1.496690 -10.473864 0.321515 2.636922 -4.385429 0.228066 0.887054 -23.850479 -9.144641 -12.739102 30.845375 0.294834 0.138625 -6.012770 20.200510 6.069174 -5.550466 3.317318 1.653915 
1.090189 48.756802 1.991476 0.039710 11.771317 -0.038242 5.024675 -10.518302 -0.576933 -4.423641 -0.729791 0.233884 2.544145 -0.412464 -0.504492 14.617513 -2.883280 -0.168688 -0.040584 -0.078062 -0.422353 -8.957436 -5.041193 -1.256891 3.629153 1.674900 8.382938 -12.254845 6.409270 -71.156548 1.793814 5.284096 -7.177577 -1.287808 -14.794188 -17.577623 2.833577 1.920254 -9.519980 0.185177 -19.686136 75.631973 5.860670 -12.202848 1.495629 2.122646 17.019945 16.166636 8.670869 -9.930961 -0.875853 -2.624315 -1.115163 -2.109624 8.637221 0.667759 -1.338332 -10.338028 0.103012 2.719415 -4.917851 -0.000714 1.024825 -23.248041 -8.682900 -10.775605 29.808546 0.108922 0.247190 -7.002982 21.309029 6.461097 -6.376559 3.166100 1.643156 
1.443610 48.708149 2.332890 0.029764 12.108937 -0.037362 5.150634 -10.167311 -0.348187 -4.521526 -0.804057 0.363627 2.733279 -0.326594 -0.403332 14.539532 -2.735614 -0.436253 -0.406576 -0.078611 -0.306415 -8.949208 -4.935126 -1.674633 3.535687 1.591390 7.984287 -11.838940 5.906253 -71.133568 1.201094 3.251285 -7.590757 -0.587114 -14.566911 -17.903589 2.720088 2.184856 -9.297615 0.825191 -20.974737 75.246994 6.055092 -13.412835 1.309155 2.171831 16.759697 16.341627 8.660016 -9.545902 -1.079317 -3.377378 -1.635493 -1.900623 10.362561 0.348483 -1.325479 -10.700685 0.031010 2.786411 -5.283030 -0.020045 0.991596 -22.433073 -8.433726 -9.447124 28.015409 -0.487511 0.372774 -7.297006 22.377024 6.786993 -7.288412 3.161974 1.094576 
1.786235 48.588806 2.832696 0.037635 12.554604 -0.039929 5.252756 -9.712576 0.077077 -4.429343 -0.836335 0.479530 2.427600 -0.239068 -0.064227 14.579697 -2.676900 -0.767155 -0.188994 -0.184518 -0.140967 -9.205506 -4.590375 -2.028431 3.808132 1.571135 7.927856 -11.749786 5.465819 -71.753723 1.799706 1.617456 -7.806198 -0.114519 -14.381284 -18.200882 2.944707 2.157440 -9.161378 1.372987 -21.490208 74.933815 5.754392 -14.683345 0.610276 2.322910 16.568161 16.731819 8.555650 -9.028760 -0.758440 -3.955347 -2.531653 -1.978913 12.445327 0.365136 -1.282712 -11.665243 -0.651670 2.568738 -5.730927 0.206090 0.713775 -21.130194 -8.309132 -8.379913 26.020187 -0.792285 -0.136759 -7.245341 21.845839 5.844600 -7.789805 2.863271 0.688839 
2.090840 48.475349 3.343305 0.022088 12.474015 -0.028850 5.562237 -8.595642 0.497198 -4.739142 -0.998076 0.929551 2.622241 0.103583 0.140181 14.427035 -2.843954 -0.615077 -0.091699 -0.262619 -0.330517 -9.402621 -4.415100 -2.328101 4.062788 1.212444 8.111023 -11.324729 5.420833 -72.689957 2.095019 0.490170 -7.636016 0.788527 -13.947204 -18.500050 3.131019 2.614743 -9.240933 2.075357 -22.359898 74.817390 5.317902 -15.678029 0.283297 2.639132 16.102968 16.589525 8.749624 -7.983195 -0.363514 -6.242959 -2.800078 -2.724578 16.916903 0.316718 -0.928877 -12.992963 -1.531184 1.677693 -6.439499 -0.473639 1.742695 -20.245939 -7.979389 -8.235076 25.310860 -0.436438 -1.047458 -8.514861 20.294228 5.888672 -7.047265 2.333689 0.788394 
2.402555 48.248753 3.792570 0.030800 12.489727 -0.046102 6.029628 -7.932074 1.262798 -4.787534 -0.730586 1.214799 2.629344 0.179079 1.013232 14.241063 -2.755765 -1.134014 -0.034345 -0.390393 -0.020482 -9.733653 -4.663574 -2.899899 4.202768 0.842237 8.176828 -10.743071 5.951571 -73.524994 3.205945 0.415817 -7.601534 1.517074 -13.727193 -18.928936 3.334870 2.810199 -9.174913 1.412957 -22.417145 73.544601 4.867415 -16.868464 0.042974 2.876502 15.885956 16.968513 8.833112 -7.530034 -0.143889 -9.358724 -2.120570 -2.705189 23.210791 0.606734 -1.402602 -14.084318 -2.829911 0.273835 -8.151760 -1.246343 4.098380 -18.894743 -7.864462 -8.511849 24.447599 -0.235763 -1.431738 -9.757639 18.567942 5.941680 -6.161263 2.223275 0.922118 
